<svg width="1024" height="1024" viewBox="0 0 1024 1024" fill="none" xmlns="http://www.w3.org/2000/svg">
<circle cx="512" cy="512" r="454" fill="url(#paint0_radial)" stroke="white" stroke-width="10"/>
<path d="M304.9 671.8C297.7 681 288.6 688.1 277.6 693.1C266.6 698.1 255.2 700.6 243.4 700.6C232.2 700.6 221.6 698.8 211.6 695.2C201.8 691.6 193.2 686.5 185.8 679.9C178.6 673.1 172.9 665 168.7 655.6C164.5 646.2 162.4 635.7 162.4 624.1C162.4 612.5 164.5 602 168.7 592.6C172.9 583.2 178.6 575.2 185.8 568.6C193.2 561.8 201.8 556.6 211.6 553C221.6 549.4 232.2 547.6 243.4 547.6C253.8 547.6 263.2 549.4 271.6 553C280.2 556.6 287.4 561.8 293.2 568.6C299.2 575.2 303.8 583.2 307 592.6C310.2 602 311.8 612.5 311.8 624.1V638.2H207.4C209.2 646.8 213.1 653.7 219.1 658.9C225.1 663.9 232.5 666.4 241.3 666.4C248.7 666.4 254.9 664.8 259.9 661.6C265.1 658.2 269.6 653.9 273.4 648.7L304.9 671.8ZM266.8 607.6C267 600 264.5 593.5 259.3 588.1C254.1 582.7 247.4 580 239.2 580C234.2 580 229.8 580.8 226 582.4C222.2 584 218.9 586.1 216.1 588.7C213.5 591.1 211.4 594 209.8 597.4C208.4 600.6 207.6 604 207.4 607.6H266.8ZM343.366 551.2H384.766V570.4H385.366C387.166 567.8 389.466 565.2 392.266 562.6C395.266 559.8 398.666 557.3 402.466 555.1C406.466 552.9 410.766 551.1 415.366 549.7C419.966 548.3 424.866 547.6 430.066 547.6C440.866 547.6 450.666 549.5 459.466 553.3C468.266 556.9 475.766 562.1 481.966 568.9C488.366 575.5 493.266 583.4 496.666 592.6C500.066 601.8 501.766 611.9 501.766 622.9C501.766 633.1 500.166 642.9 496.966 652.3C493.966 661.5 489.566 669.7 483.766 676.9C478.166 684.1 471.266 689.9 463.066 694.3C454.866 698.5 445.566 700.6 435.166 700.6C425.766 700.6 416.966 699.2 408.766 696.4C400.766 693.4 394.166 688.4 388.966 681.4H388.366V765.4H343.366V551.2ZM384.766 624.1C384.766 635.1 387.866 644 394.066 650.8C400.466 657.6 409.366 661 420.766 661C432.166 661 440.966 657.6 447.166 650.8C453.566 644 456.766 635.1 456.766 624.1C456.766 613.1 453.566 604.2 447.166 597.4C440.966 590.6 432.166 587.2 420.766 587.2C409.366 587.2 400.466 590.6 394.066 597.4C387.866 604.2 384.766 613.1 384.766 624.1ZM668.53 697H625.33V677.2H624.73C623.13 680 621.03 682.8 618.43 685.6C616.03 688.4 613.03 690.9 609.43 693.1C605.83 695.3 601.73 697.1 597.13 698.5C592.53 699.9 587.53 700.6 582.13 700.6C570.73 700.6 561.43 698.9 554.23 695.5C547.23 691.9 541.73 687 537.73 680.8C533.93 674.6 531.33 667.3 529.93 658.9C528.73 650.5 528.13 641.4 528.13 631.6V551.2H573.13V622.6C573.13 626.8 573.23 631.2 573.43 635.8C573.83 640.2 574.73 644.3 576.13 648.1C577.73 651.9 580.03 655 583.03 657.4C586.23 659.8 590.73 661 596.53 661C602.33 661 607.03 660 610.63 658C614.23 655.8 616.93 653 618.73 649.6C620.73 646 622.03 642 622.63 637.6C623.23 633.2 623.53 628.6 623.53 623.8V551.2H668.53V697ZM704.596 470.2H749.596V566.8H750.196C755.396 559.8 761.996 554.9 769.996 552.1C778.196 549.1 786.996 547.6 796.396 547.6C806.796 547.6 816.096 549.8 824.296 554.2C832.496 558.4 839.396 564.1 844.996 571.3C850.796 578.5 855.196 586.8 858.196 596.2C861.396 605.4 862.996 615.1 862.996 625.3C862.996 636.3 861.296 646.4 857.896 655.6C854.496 664.8 849.596 672.8 843.196 679.6C836.996 686.2 829.496 691.4 820.696 695.2C811.896 698.8 802.096 700.6 791.296 700.6C786.096 700.6 781.196 699.9 776.596 698.5C771.996 697.1 767.696 695.3 763.696 693.1C759.896 690.9 756.496 688.5 753.496 685.9C750.696 683.1 748.396 680.4 746.596 677.8H745.996V697H704.596V470.2ZM745.996 624.1C745.996 635.1 749.096 644 755.296 650.8C761.696 657.6 770.596 661 781.996 661C793.396 661 802.196 657.6 808.396 650.8C814.796 644 817.996 635.1 817.996 624.1C817.996 613.1 814.796 604.2 808.396 597.4C802.196 590.6 793.396 587.2 781.996 587.2C770.596 587.2 761.696 590.6 755.296 597.4C749.096 604.2 745.996 613.1 745.996 624.1Z" fill="#FFF7F7"/>
<path d="M672.875 383.4H660.5V377.2C660.5 375.556 659.848 373.979 658.688 372.816C657.527 371.653 655.954 371 654.312 371C652.671 371 651.098 371.653 649.937 372.816C648.777 373.979 648.125 375.556 648.125 377.2V383.4H635.75C634.795 383.417 633.856 383.655 633.008 384.096C632.16 384.537 631.425 385.169 630.862 385.942L591.076 336.342C590.59 335.765 590.003 335.282 589.344 334.916V245.45C589.344 233.112 536.75 147.8 512 147.8C487.25 147.8 434.656 233.112 434.656 245.45V334.668C433.997 335.034 433.41 335.517 432.924 336.094L393.138 385.694C392.549 384.966 391.803 384.382 390.957 383.985C390.11 383.587 389.185 383.387 388.25 383.4H375.875C375.875 381.756 375.223 380.179 374.063 379.016C372.902 377.853 371.329 377.2 369.688 377.2C368.046 377.2 366.473 377.853 365.312 379.016C364.152 380.179 363.5 381.756 363.5 383.4H351.125C349.484 383.4 347.91 384.053 346.75 385.216C345.589 386.379 344.938 387.956 344.938 389.6V488.8C344.938 490.444 345.589 492.021 346.75 493.184C347.91 494.347 349.484 495 351.125 495H388.25C389.891 495 391.465 494.347 392.625 493.184C393.786 492.021 394.438 490.444 394.438 488.8V470.2H434.656V476.4C434.673 477.471 434.968 478.52 435.51 479.444C436.052 480.367 436.824 481.134 437.75 481.67V495C437.75 496.644 438.402 498.221 439.562 499.384C440.723 500.547 442.296 501.2 443.938 501.2H487.25C488.891 501.2 490.465 500.547 491.625 499.384C492.786 498.221 493.438 496.644 493.438 495V482.6H524.375V495C524.375 496.644 525.027 498.221 526.187 499.384C527.348 500.547 528.921 501.2 530.562 501.2H573.875C575.516 501.2 577.09 500.547 578.25 499.384C579.411 498.221 580.062 496.644 580.062 495V482.6H583.156C584.797 482.6 586.371 481.947 587.531 480.784C588.692 479.621 589.344 478.044 589.344 476.4V470.2H629.562V488.8C629.562 490.444 630.214 492.021 631.375 493.184C632.535 494.347 634.109 495 635.75 495H672.875C674.516 495 676.09 494.347 677.25 493.184C678.411 492.021 679.062 490.444 679.062 488.8V389.6C679.062 387.956 678.411 386.379 677.25 385.216C676.09 384.053 674.516 383.4 672.875 383.4ZM382.062 482.6H357.312V395.8H382.062V482.6ZM431.562 457.8H394.438V404.17L431.562 357.67V457.8ZM512 160.2C527.221 160.2 575.113 234.104 576.969 245.45V470.2H447.031V245.822C448.887 234.104 496.779 160.2 512 160.2ZM481.062 488.8H450.125V482.6H481.062V488.8ZM567.688 488.8H536.75V482.6H567.688V488.8ZM592.438 457.8V357.67L629.562 404.17V457.8H592.438ZM666.688 482.6H641.938V395.8H666.688V482.6Z" fill="white"/>
<path d="M481.062 383.4H542.938C544.579 383.4 546.152 382.747 547.313 381.584C548.473 380.421 549.125 378.844 549.125 377.2V296.6C549.125 286.734 545.214 277.272 538.251 270.296C531.289 263.319 521.846 259.4 512 259.4C502.154 259.4 492.711 263.319 485.749 270.296C478.786 277.272 474.875 286.734 474.875 296.6V377.2C474.875 378.844 475.527 380.421 476.687 381.584C477.848 382.747 479.421 383.4 481.062 383.4ZM487.25 296.6C487.25 290.023 489.858 283.715 494.499 279.064C499.141 274.413 505.436 271.8 512 271.8C518.564 271.8 524.859 274.413 529.501 279.064C534.142 283.715 536.75 290.023 536.75 296.6V371H487.25V296.6Z" fill="white"/>
<path d="M413 309C411.359 309 409.785 309.653 408.625 310.816C407.464 311.979 406.812 313.556 406.812 315.2V321.4C406.812 323.044 407.464 324.621 408.625 325.784C409.785 326.947 411.359 327.6 413 327.6C414.641 327.6 416.215 326.947 417.375 325.784C418.536 324.621 419.188 323.044 419.188 321.4V315.2C419.188 313.556 418.536 311.979 417.375 310.816C416.215 309.653 414.641 309 413 309Z" fill="white"/>
<path d="M419.188 222.2C419.188 220.556 418.536 218.979 417.375 217.816C416.215 216.653 414.641 216 413 216C411.359 216 409.785 216.653 408.625 217.816C407.464 218.979 406.812 220.556 406.812 222.2V234.6C406.812 236.244 407.464 237.821 408.625 238.984C409.785 240.147 411.359 240.8 413 240.8C414.641 240.8 416.215 240.147 417.375 238.984C418.536 237.821 419.188 236.244 419.188 234.6V222.2Z" fill="white"/>
<path d="M419.188 253.2C419.188 251.556 418.536 249.979 417.375 248.816C416.215 247.653 414.641 247 413 247C411.359 247 409.785 247.653 408.625 248.816C407.464 249.979 406.812 251.556 406.812 253.2V265.6C406.812 267.244 407.464 268.821 408.625 269.984C409.785 271.147 411.359 271.8 413 271.8C414.641 271.8 416.215 271.147 417.375 269.984C418.536 268.821 419.188 267.244 419.188 265.6V253.2Z" fill="white"/>
<path d="M419.188 284.2C419.188 282.556 418.536 280.979 417.375 279.816C416.215 278.653 414.641 278 413 278C411.359 278 409.785 278.653 408.625 279.816C407.464 280.979 406.812 282.556 406.812 284.2V296.6C406.812 298.244 407.464 299.821 408.625 300.984C409.785 302.147 411.359 302.8 413 302.8C414.641 302.8 416.215 302.147 417.375 300.984C418.536 299.821 419.188 298.244 419.188 296.6V284.2Z" fill="white"/>
<path d="M611 309C609.359 309 607.785 309.653 606.625 310.816C605.464 311.979 604.812 313.556 604.812 315.2V321.4C604.812 323.044 605.464 324.621 606.625 325.784C607.785 326.947 609.359 327.6 611 327.6C612.641 327.6 614.215 326.947 615.375 325.784C616.536 324.621 617.188 323.044 617.188 321.4V315.2C617.188 313.556 616.536 311.979 615.375 310.816C614.215 309.653 612.641 309 611 309Z" fill="white"/>
<path d="M617.188 284.2C617.188 282.556 616.536 280.979 615.375 279.816C614.215 278.653 612.641 278 611 278C609.359 278 607.785 278.653 606.625 279.816C605.464 280.979 604.812 282.556 604.812 284.2V296.6C604.812 298.244 605.464 299.821 606.625 300.984C607.785 302.147 609.359 302.8 611 302.8C612.641 302.8 614.215 302.147 615.375 300.984C616.536 299.821 617.188 298.244 617.188 296.6V284.2Z" fill="white"/>
<path d="M617.188 253.2C617.188 251.556 616.536 249.979 615.375 248.816C614.215 247.653 612.641 247 611 247C609.359 247 607.785 247.653 606.625 248.816C605.464 249.979 604.812 251.556 604.812 253.2V265.6C604.812 267.244 605.464 268.821 606.625 269.984C607.785 271.147 609.359 271.8 611 271.8C612.641 271.8 614.215 271.147 615.375 269.984C616.536 268.821 617.188 267.244 617.188 265.6V253.2Z" fill="white"/>
<path d="M617.188 222.2C617.188 220.556 616.536 218.979 615.375 217.816C614.215 216.653 612.641 216 611 216C609.359 216 607.785 216.653 606.625 217.816C605.464 218.979 604.812 220.556 604.812 222.2V234.6C604.812 236.244 605.464 237.821 606.625 238.984C607.785 240.147 609.359 240.8 611 240.8C612.641 240.8 614.215 240.147 615.375 238.984C616.536 237.821 617.188 236.244 617.188 234.6V222.2Z" fill="white"/>
<path d="M660.5 315.2C660.5 313.556 659.848 311.979 658.688 310.816C657.527 309.653 655.954 309 654.312 309C652.671 309 651.098 309.653 649.937 310.816C648.777 311.979 648.125 313.556 648.125 315.2V327.6C648.125 329.244 648.777 330.821 649.937 331.984C651.098 333.147 652.671 333.8 654.312 333.8C655.954 333.8 657.527 333.147 658.688 331.984C659.848 330.821 660.5 329.244 660.5 327.6V315.2Z" fill="white"/>
<path d="M654.312 340C652.671 340 651.098 340.653 649.937 341.816C648.777 342.979 648.125 344.556 648.125 346.2V358.6C648.125 360.244 648.777 361.821 649.937 362.984C651.098 364.147 652.671 364.8 654.312 364.8C655.954 364.8 657.527 364.147 658.688 362.984C659.848 361.821 660.5 360.244 660.5 358.6V346.2C660.5 344.556 659.848 342.979 658.688 341.816C657.527 340.653 655.954 340 654.312 340Z" fill="white"/>
<path d="M660.5 284.2C660.5 282.556 659.848 280.979 658.688 279.816C657.527 278.653 655.954 278 654.312 278C652.671 278 651.098 278.653 649.937 279.816C648.777 280.979 648.125 282.556 648.125 284.2V296.6C648.125 298.244 648.777 299.821 649.937 300.984C651.098 302.147 652.671 302.8 654.312 302.8C655.954 302.8 657.527 302.147 658.688 300.984C659.848 299.821 660.5 298.244 660.5 296.6V284.2Z" fill="white"/>
<path d="M375.875 321.4C375.875 319.756 375.223 318.179 374.063 317.016C372.902 315.853 371.329 315.2 369.688 315.2C368.046 315.2 366.473 315.853 365.312 317.016C364.152 318.179 363.5 319.756 363.5 321.4V333.8C363.5 335.444 364.152 337.021 365.312 338.184C366.473 339.347 368.046 340 369.688 340C371.329 340 372.902 339.347 374.063 338.184C375.223 337.021 375.875 335.444 375.875 333.8V321.4Z" fill="white"/>
<path d="M369.688 346.2C368.046 346.2 366.473 346.853 365.312 348.016C364.152 349.179 363.5 350.756 363.5 352.4V364.8C363.5 366.444 364.152 368.021 365.312 369.184C366.473 370.347 368.046 371 369.688 371C371.329 371 372.902 370.347 374.063 369.184C375.223 368.021 375.875 366.444 375.875 364.8V352.4C375.875 350.756 375.223 349.179 374.063 348.016C372.902 346.853 371.329 346.2 369.688 346.2Z" fill="white"/>
<path d="M375.875 290.4C375.875 288.756 375.223 287.179 374.063 286.016C372.902 284.853 371.329 284.2 369.688 284.2C368.046 284.2 366.473 284.853 365.312 286.016C364.152 287.179 363.5 288.756 363.5 290.4V302.8C363.5 304.444 364.152 306.021 365.312 307.184C366.473 308.347 368.046 309 369.688 309C371.329 309 372.902 308.347 374.063 307.184C375.223 306.021 375.875 304.444 375.875 302.8V290.4Z" fill="white"/>
<defs>
<radialGradient id="paint0_radial" cx="0" cy="0" r="1" gradientUnits="userSpaceOnUse" gradientTransform="translate(691 305) rotate(105.263) scale(679.983)">
<stop stop-color="#4542FF"/>
<stop offset="0.0001" stop-color="#5350C4"/>
<stop offset="1" stop-color="#0D0A8C"/>
</radialGradient>
</defs>
</svg>
